<svg width="64" height="64" viewBox="0 0 64 64" fill="none" xmlns="http://www.w3.org/2000/svg">
<g id="Group 3">
<path id="Vector" d="M41.27 16.8301H24.87C20.86 16.8301 17.61 20.0801 17.61 24.0901V40.4901C17.61 44.5001 20.86 47.7601 24.87 47.7601H41.27C45.28 47.7601 48.54 44.5101 48.54 40.4901V24.0901C48.54 20.0801 45.29 16.8301 41.27 16.8301ZM33.07 42.1401C27.64 42.1401 23.23 37.7301 23.23 32.3001C23.23 26.8701 27.63 22.4601 33.07 22.4601C38.51 22.4601 42.91 26.8601 42.91 32.3001C42.91 37.7401 38.51 42.1401 33.07 42.1401ZM43.24 24.3801C41.97 24.3801 40.95 23.3501 40.95 22.0901C40.95 20.8301 41.97 19.8001 43.24 19.8001C44.51 19.8001 45.53 20.8301 45.53 22.0901C45.53 23.3501 44.5 24.3801 43.24 24.3801Z" fill="white"/>
<path id="Vector_2" d="M33.0699 25.9199C29.5499 25.9199 26.6899 28.7699 26.6899 32.2999C26.6899 35.8299 29.5499 38.6799 33.0699 38.6799C36.5899 38.6799 39.4499 35.8199 39.4499 32.2999C39.4499 28.7799 36.5899 25.9199 33.0699 25.9199Z" fill="white"/>
<path id="Vector_3" d="M32 0C14.35 0 0 14.36 0 32C0 49.64 14.35 64 32 64C49.65 64 64 49.64 64 32C64 14.36 49.64 0 32 0ZM52.03 40.22C52.03 46.26 47.13 51.16 41.09 51.16H25.06C19.02 51.16 14.12 46.26 14.12 40.22V24.19C14.12 18.15 19.02 13.25 25.06 13.25H41.09C47.13 13.25 52.03 18.15 52.03 24.19V40.22Z" fill="white"/>
</g>
</svg>
