<svg width="64" height="64" viewBox="0 0 64 64" fill="none" xmlns="http://www.w3.org/2000/svg">
<g id="Group 2">
<path id="Vector" d="M36.8101 25.0799C36.4101 25.0899 36.0101 25.0799 35.6101 25.0799C35.1701 25.0799 35.1401 25.1099 35.1401 25.5699C35.1401 26.8599 35.1401 28.1499 35.1401 29.4399C35.1401 29.5299 35.1401 29.6099 35.1401 29.6999C35.1401 29.7599 35.1401 29.8499 35.0501 29.8499C35.0101 29.8499 34.9501 29.8099 34.9201 29.7699C34.8601 29.6999 34.8201 29.6299 34.7701 29.5599C33.8401 28.1799 32.9001 26.7999 31.9701 25.4099C31.8101 25.1799 31.6401 25.0699 31.3601 25.0799C30.9801 25.0999 30.6001 25.0799 30.2201 25.0799C29.9501 25.0799 29.8201 25.1799 29.8201 25.4599C29.8201 28.2399 29.8201 31.0299 29.8201 33.8099C29.8201 34.0899 29.9501 34.1899 30.2201 34.1799C30.6201 34.1799 31.0201 34.1799 31.4201 34.1799C31.8501 34.1799 31.8801 34.1499 31.8801 33.7099C31.8801 32.3699 31.8801 31.0199 31.8801 29.6799C31.8801 29.5799 31.8801 29.4799 31.8901 29.3899C31.9101 29.2599 31.9901 29.2199 32.0901 29.3299C32.1501 29.3999 32.2001 29.4899 32.2601 29.5699C33.2001 30.9799 34.1501 32.3899 35.0901 33.8099C35.2701 34.0799 35.4701 34.1999 35.7901 34.1799C36.1101 34.1599 36.4401 34.1799 36.7601 34.1799C37.1701 34.1799 37.2001 34.1399 37.2001 33.7299C37.2001 32.3699 37.2001 30.9999 37.2001 29.6399C37.2001 28.2499 37.2001 26.8699 37.2001 25.4799C37.2001 25.1899 37.1001 25.0599 36.8001 25.0699L36.8101 25.0799Z" fill="white"/>
<path id="Vector_2" d="M27.71 25.0898C27.29 25.0898 26.87 25.0898 26.44 25.0898C26 25.0898 25.98 25.1198 25.97 25.5498C25.97 26.8998 25.97 28.2598 25.97 29.6098C25.97 30.9998 25.97 32.3798 25.97 33.7698C25.97 34.1598 26.01 34.1898 26.4 34.1998C26.83 34.1998 27.27 34.1998 27.7 34.1998C27.97 34.1998 28.1 34.0998 28.09 33.8198C28.09 31.0398 28.09 28.2598 28.09 25.4798C28.09 25.1998 27.97 25.0898 27.7 25.0998L27.71 25.0898Z" fill="white"/>
<path id="Vector_3" d="M24.3 32.3101C23.25 32.3201 22.2 32.3101 21.15 32.3101C20.69 32.3101 20.63 32.2401 20.62 31.7801C20.62 31.6601 20.62 31.5401 20.62 31.4201C20.62 29.4501 20.62 27.4801 20.62 25.5101C20.62 25.1201 20.58 25.0901 20.19 25.0801C19.82 25.0801 19.45 25.0801 19.09 25.0801C18.51 25.0801 18.5 25.0801 18.5 25.6501C18.5 26.9701 18.5 28.2901 18.5 29.6101C18.5 30.9701 18.5 32.3401 18.5 33.7001C18.5 34.1401 18.54 34.1801 18.99 34.1801C20.52 34.1801 22.04 34.1801 23.57 34.1801C23.86 34.1801 24.15 34.1801 24.45 34.1801C24.68 34.1801 24.77 34.0701 24.77 33.8301C24.77 33.4601 24.77 33.1001 24.75 32.7301C24.75 32.4101 24.63 32.2901 24.31 32.3001L24.3 32.3101Z" fill="white"/>
<path id="Vector_4" d="M32 0C14.35 0 0 14.36 0 32C0 49.64 14.35 64 32 64C49.65 64 64 49.64 64 32C64 14.36 49.64 0 32 0ZM50.43 37.13C49.41 38.73 48.23 40.19 46.87 41.5C45.03 43.28 43.03 44.87 40.94 46.34C38.23 48.24 35.43 49.98 32.46 51.44C32.1 51.62 31.73 51.78 31.36 51.91C30.77 52.13 30.31 51.86 30.18 51.24C30.03 50.51 30.2 49.8 30.27 49.08C30.3 48.76 30.37 48.44 30.42 48.12C30.59 47 29.96 46.08 28.83 45.9C27.57 45.7 26.31 45.48 25.08 45.12C21.26 44.01 17.89 42.13 15.19 39.17C12.92 36.69 11.48 33.8 11.15 30.42C10.78 26.61 11.87 23.21 14.15 20.17C16.5 17.05 19.61 14.97 23.23 13.59C25.49 12.73 27.84 12.24 30.25 12.08C30.85 12.04 31.44 12.04 32.04 12.02C36.5 12.04 40.68 13.08 44.51 15.4C47.19 17.02 49.4 19.12 50.97 21.85C52.09 23.79 52.75 25.88 52.89 28.12C53.1 31.41 52.19 34.37 50.43 37.13Z" fill="white"/>
<path id="Vector_5" d="M44.7 32.3199C43.73 32.3199 42.75 32.3199 41.78 32.3199C41.37 32.3199 41.3 32.2499 41.3 31.8499C41.3 31.5399 41.3 31.2199 41.3 30.9099C41.3 30.4499 41.34 30.4099 41.8 30.4099C42.64 30.4099 43.49 30.4099 44.33 30.4099C44.74 30.4099 44.8 30.3499 44.81 29.9399C44.81 29.6599 44.81 29.3799 44.81 29.0999C44.81 28.5299 44.7901 28.4999 44.2101 28.4999C43.4701 28.4999 42.74 28.4799 42 28.5299C41.37 28.5699 41.3 28.4899 41.29 27.8499C41.29 27.7399 41.29 27.6299 41.29 27.5299C41.29 27.0399 41.34 26.9799 41.83 26.9799C42.74 26.9799 43.65 26.9799 44.56 26.9799C44.95 26.9799 45.01 26.9199 45.01 26.5199C45.01 26.1999 45.01 25.8699 45.01 25.5499C45.01 25.1399 44.97 25.1099 44.56 25.1099C42.91 25.1099 41.27 25.1099 39.62 25.1099C39.2 25.1099 39.17 25.1399 39.17 25.5799C39.17 26.9299 39.17 28.2899 39.17 29.6399C39.17 31.0299 39.17 32.4099 39.17 33.7999C39.17 34.0499 39.2101 34.2199 39.5201 34.2199C41.3101 34.2199 43.0901 34.2199 44.8801 34.2199C45.1101 34.2199 45.2101 34.1199 45.2101 33.8799C45.2101 33.5299 45.2101 33.1899 45.2101 32.8399C45.2101 32.3799 45.1701 32.3399 44.7101 32.3399L44.7 32.3199Z" fill="white"/>
</g>
</svg>
